<svg width="20" height="20" viewBox="0 0 20 20" fill="none" xmlns="http://www.w3.org/2000/svg">
<path d="M7.20898 0.5H12.791C15.259 0.500045 16.9008 1.0297 17.9355 2.06445C18.9703 3.09921 19.5 4.74098 19.5 7.20898V12.791C19.5 15.259 18.9703 16.9008 17.9355 17.9355C16.9008 18.9703 15.259 19.5 12.791 19.5H7.20898C4.74098 19.5 3.09921 18.9703 2.06445 17.9355C1.0297 16.9008 0.500045 15.259 0.5 12.791V7.20898C0.500045 4.74098 1.0297 3.09921 2.06445 2.06445C3.09921 1.0297 4.74098 0.500045 7.20898 0.5ZM7.20898 0.895508C5.02968 0.895545 3.40359 1.27805 2.34082 2.34082C1.27805 3.40359 0.895545 5.02968 0.895508 7.20898V12.791C0.895545 14.9703 1.27805 16.5964 2.34082 17.6592C3.40359 18.7219 5.02968 19.1045 7.20898 19.1045H12.791C14.9703 19.1045 16.5964 18.7219 17.6592 17.6592C18.7219 16.5964 19.1045 14.9703 19.1045 12.791V7.20898C19.1045 5.02968 18.7219 3.40359 17.6592 2.34082C16.5964 1.27805 14.9703 0.895545 12.791 0.895508H7.20898Z" fill="#253017" stroke="black"/>
</svg>
