<svg width="20" height="20" viewBox="0 0 20 20" fill="none" xmlns="http://www.w3.org/2000/svg">
<path d="M12.791 0C17.8418 9.04587e-05 19.9999 2.15815 20 7.20898V12.791C19.9999 17.8418 17.8418 19.9999 12.791 20H7.20898C2.15815 19.9999 9.04602e-05 17.8418 0 12.791V7.20898C9.06199e-05 2.15816 2.15816 9.06214e-05 7.20898 0H12.791ZM14.7803 6.62988C14.4903 6.33988 14.0097 6.33988 13.7197 6.62988L8.58008 11.7695L6.28027 9.46973C5.99028 9.17973 5.50973 9.17974 5.21973 9.46973C4.92973 9.75973 4.92973 10.2403 5.21973 10.5303L8.0498 13.3604C8.18979 13.5003 8.38013 13.5801 8.58008 13.5801C8.78003 13.58 8.97038 13.5003 9.11035 13.3604L14.7803 7.69043C15.0702 7.40047 15.0702 6.9199 14.7803 6.62988Z" fill="#ABD27A"/>
</svg>
