<svg width="56" height="56" viewBox="0 0 56 56" fill="none" xmlns="http://www.w3.org/2000/svg">
<rect width="56" height="56" rx="28" fill="#DEEBC5"/>
<path d="M25.2079 26.8396C23.7943 26.8396 22.6504 25.6957 22.6504 24.2821C22.6504 22.8685 23.7943 21.7246 25.2079 21.7246C26.6215 21.7246 27.7654 22.8685 27.7654 24.2821C27.7654 25.6957 26.6215 26.8396 25.2079 26.8396ZM25.2079 23.1196C24.5662 23.1196 24.0454 23.6404 24.0454 24.2821C24.0454 24.9238 24.5662 25.4446 25.2079 25.4446C25.8496 25.4446 26.3704 24.9238 26.3704 24.2821C26.3704 23.6404 25.8496 23.1196 25.2079 23.1196Z" fill="#253017"/>
<path d="M30.7875 38.0009H25.2075C20.1576 38.0009 18 35.8433 18 30.7934V25.2134C18 20.1635 20.1576 18.0059 25.2075 18.0059H28.9275C29.3088 18.0059 29.625 18.3221 29.625 18.7034C29.625 19.0847 29.3088 19.4009 28.9275 19.4009H25.2075C20.9202 19.4009 19.395 20.9261 19.395 25.2134V30.7934C19.395 35.0807 20.9202 36.6059 25.2075 36.6059H30.7875C35.0749 36.6059 36.6001 35.0807 36.6001 30.7934V26.1434C36.6001 25.7621 36.9163 25.4459 37.2976 25.4459C37.6789 25.4459 37.9951 25.7621 37.9951 26.1434V30.7934C37.9951 35.8433 35.8375 38.0009 30.7875 38.0009Z" fill="#253017"/>
<path d="M31.4096 25.91C31.0469 25.91 30.7121 25.7798 30.4703 25.5287C30.182 25.2404 30.0425 24.8126 30.1076 24.3755L30.2936 23.0828C30.3401 22.7573 30.5354 22.3574 30.7772 22.1249L34.1531 18.7489C35.5016 17.4004 36.6734 18.1723 37.25 18.7489C37.7987 19.2976 38.0498 19.8742 37.994 20.4694C37.9475 20.9437 37.7057 21.3994 37.25 21.8459L33.8741 25.2218C33.6416 25.4543 33.2417 25.6496 32.9162 25.7054L31.6235 25.8914C31.5491 25.91 31.4747 25.91 31.4096 25.91ZM35.1296 19.744L31.7537 23.12C31.7258 23.1479 31.6793 23.2502 31.67 23.2967L31.4933 24.5057L32.7116 24.3383C32.7488 24.329 32.8511 24.2825 32.8883 24.2453L36.2642 20.8693C36.4688 20.6647 36.5897 20.4787 36.599 20.3392C36.6176 20.1439 36.4223 19.9021 36.2642 19.744C35.7806 19.2604 35.5574 19.3162 35.1296 19.744Z" fill="#253017"/>
<path d="M36.275 22.5428C36.2099 22.5428 36.1448 22.5335 36.089 22.5149C34.8428 22.1615 33.8477 21.1664 33.4943 19.9202C33.392 19.5482 33.6059 19.1669 33.9779 19.0646C34.3499 18.9623 34.7312 19.1762 34.8335 19.5482C35.0567 20.3294 35.6798 20.9618 36.4703 21.185C36.8423 21.2873 37.0562 21.6779 36.9539 22.0406C36.8516 22.3382 36.5726 22.5428 36.275 22.5428Z" fill="#253017"/>
<path d="M19.3201 35.1636C19.0969 35.1636 18.8737 35.052 18.7435 34.8567C18.5296 34.5405 18.6133 34.1034 18.9295 33.8895L23.5144 30.8112C24.5188 30.1416 25.9045 30.216 26.8159 30.9879L27.1228 31.2576C27.5878 31.6575 28.3783 31.6575 28.8341 31.2576L32.7029 27.9375C33.6887 27.0912 35.2418 27.0912 36.2369 27.9375L37.7528 29.2395C38.0411 29.4906 38.0783 29.9277 37.8272 30.2253C37.5761 30.5136 37.139 30.5508 36.8414 30.2997L35.3255 28.9977C34.8605 28.5978 34.07 28.5978 33.6143 28.9977L29.7455 32.3178C28.7597 33.1641 27.2065 33.1641 26.2114 32.3178L25.9045 32.0481C25.4767 31.6854 24.7699 31.6482 24.2956 31.9737L19.72 35.052C19.5898 35.1264 19.4503 35.1636 19.3201 35.1636Z" fill="#253017"/>
</svg>
